<svg xmlns="http://www.w3.org/2000/svg" viewBox="0 0 512 512" preserveAspectRatio="xMidYMid meet"><path d="M172.777 20.619q1.899-.005 3.799-.014c3.454-.013 6.909-.007 10.363.003 3.736.007 7.472-.004 11.207-.012 7.309-.013 14.617-.01 21.926-.002q8.914.01 17.83.005l2.567-.002 5.164-.003c16.127-.008 32.255.002 48.382.018q20.733.018 41.464-.003a30645 30645 0 0 1 53.352-.01l2.557.001q8.898.003 17.794-.009 10.853-.013 21.705.01c3.688.008 7.375.011 11.063.001q5.074-.013 10.148.012c1.788.005 3.576-.005 5.364-.015 15.237.11 29.336 4.545 40.507 15.21C504.432 42.782 508.2 49.956 511 59l1 3c.102 2.646.148 5.265.147 7.91l.011 2.47q.015 4.11.019 8.221l.02 5.884c.021 6.452.031 12.903.041 19.355l.013 6.666a26634 26634 0 0 1 .044 34.938l.002 1.806c.008 9.644.033 19.286.066 28.93q.049 14.869.054 29.737c.002 5.56.011 11.121.036 16.682q.034 7.855.018 15.712 0 2.873.02 5.746c.099 14.635-1.266 25.96-10.491 37.943l-1.367 1.863c-7.532 9.596-18.658 15.075-30.37 17.766-2.727.31-4.268.29-6.867-.194-3.92-.662-6.612-.854-10.396.565-2.858 5.399-1.519 12.987-1.262 18.855q.05 2.909.082 5.816c.07 5.125.223 10.245.394 15.367.226 7.203.345 14.408.473 21.612q.105 5.761.294 11.519l.137 5.277.1 2.41c.1 4.58-.271 7.4-3.218 11.144-1.648.996-1.648.996-3.375 1.438l-1.71.496c-3.77.13-6.319-1.426-9.126-3.817l-2.164-2.242-2.379-2.46a272 272 0 0 1-7.242-8.126c-2.573-2.939-5.223-5.8-7.879-8.664A1036 1036 0 0 1 394 348l-.664 3.332c-3.13 14.903-8.344 27.15-21.145 36.258-11.295 7.269-22.42 9.862-35.749 9.827q-1.825.01-3.651.026c-3.276.023-6.551.028-9.827.03-3.46.006-6.922.03-10.383.05-6.564.04-13.128.063-19.693.082-11.7.033-23.399.092-35.098.154q-6.13.031-12.26.047c-12.024.032-24.05.103-36.068.485l-2.711.05c-4.942.197-7.943.674-11.688 4.222A80 80 0 0 0 192 407a162 162 0 0 1-3.25 3.688c-.565.656-1.13 1.312-1.71 1.988-2.588 2.948-5.248 5.823-7.915 8.699a1145 1145 0 0 0-12.848 14.098A1184 1184 0 0 1 158.5 444c-3.353 3.65-6.69 7.312-10 11s-6.647 7.35-10 11c-6.803 7.408-13.57 14.843-20.09 22.504-2.23 2.366-4.075 2.715-7.222 2.871l-2.02.148c-3.322-.802-5.387-2.693-7.168-5.523-.475-2.94-.096-5.705.273-8.646q.26-2.667.513-5.336l.298-2.842c4.95-36.12 4.95-36.12-1.084-71.176-4.192-4.65-8.733-5.518-14.796-6.063-10.762-.267-21.64 2.157-31.976 4.894-9.708 2.302-20.945-.208-29.572-5.183A130 130 0 0 1 19 387l-1.687-1.219C8.386 378.901 2.106 367.98 0 357c-.57-6.442-.421-12.935-.404-19.396l-.02-5.887c-.019-5.308-.018-10.616-.012-15.924.003-4.44-.003-8.88-.009-13.321-.015-11.08-.011-22.16 0-33.239.01-9.597-.002-19.194-.026-28.791q-.037-14.823-.027-29.644c.003-5.537 0-11.074-.017-16.61q-.021-7.814.008-15.627.005-2.856-.01-5.713c-.087-17.109 2.774-30.695 14.83-43.66C22.333 121.72 33.149 116.58 44 115c2.513.162 4.958.39 7.452.696 34.396 5.373 34.396 5.373 67.548-.696 4.796-4.93 5.068-11.004 5.067-17.604-.442-8.185-1.851-16.316-3.52-24.33C118.795 64.489 118.91 58.81 123 51l1.164-2.532c4.198-8.84 11.078-15.756 19.274-20.905l1.517-.964c8.786-5.176 17.811-6.04 27.822-5.98M143 52c-9.822 15.409-11.31 40.742-7.903 58.176 1.1 3.632 2.113 5.56 5.382 7.548 11.55 4.755 25.788 2.83 37.925 2.077 5.761-.307 11.524-.341 17.292-.404 9.704-.134 19.39-.45 29.085-.886 9.957-.447 19.91-.802 29.874-1.025l1.853-.042q5.518-.122 11.035-.237 8.067-.173 16.132-.361l1.757-.041c8.552-.2 17.1-.477 25.648-.8l3.251-.12c5.014-.185 10.027-.381 15.04-.6 16.825-.674 32.127.534 45.602 11.84 9.852 9.112 16.554 20.77 17.288 34.435.127 4.144.085 8.287.044 12.433q-.006 2.378-.008 4.754-.008 5.086-.04 10.173c-.03 5.368-.032 10.735-.03 16.102.005 15.255-.019 30.51-.093 45.765q-.061 12.662-.034 25.324.013 7.997-.064 15.993c-.023 3.319-.012 6.637.008 9.955q.004 2.3-.035 4.6c-.293 8.365-.293 8.365 2.721 15.95 1.99 2 4.036 3.676 6.27 5.391a98 98 0 0 1 3.25 3.688c3.13 3.637 6.362 7.168 9.625 10.687 13.349 14.413 13.349 14.413 18.125 20.25l2 2.375h1c.106-2.253.144-4.476.142-6.73l.01-2.167q.011-2.343.017-4.685.011-3.707.041-7.413c.053-7.03.1-14.058.116-21.087.01-4.293.04-8.585.081-12.877q.02-2.457.015-4.914c-.002-2.294.02-4.586.048-6.88l-.02-2.053c.066-3.32.37-4.963 2.435-7.616 2.57-1.918 3.933-2.075 7.115-2.082l2.921-.05 3.079-.008c12.331-.304 23.31-.882 33-9.438 7.127-7.502 10.473-14.981 10.388-25.298l.016-2.412c.014-2.647.007-5.293 0-7.94l.02-5.718c.019-5.164.018-10.327.012-15.49-.003-4.316.003-8.633.009-12.95q.02-15.28.001-30.56c-.011-10.494.003-20.99.03-31.484q.032-13.535.022-27.071c-.003-5.384 0-10.767.017-16.151q.022-7.597-.008-15.193-.005-2.78.01-5.56c.068-13.03-.714-23.21-10.103-33.126-9.775-8.289-20.149-9.196-32.482-9.2l-3.714-.014q-5.093-.017-10.186-.022-5.498-.01-10.994-.029-13.269-.034-26.538-.052l-7.5-.011a56621 56621 0 0 0-57.395-.07l-2.708-.001c-14.473-.013-28.946-.046-43.42-.088a17816 17816 0 0 0-44.613-.071c-8.345-.004-16.69-.015-25.035-.048-7.107-.028-14.214-.04-21.321-.028-3.623.005-7.245.002-10.868-.022a799 799 0 0 0-9.972-.003c-1.756.004-3.513-.017-5.269-.038-11.915.118-22.032 4.04-29.399 13.65m169.469 80.018a31662 31662 0 0 0-18.788.034 83508 83508 0 0 0-88.189.21l-2.482.007c-13.3.036-26.6.06-39.9.081q-20.535.033-41.07.099-12.64.04-25.28.05-8.655.01-17.312.047-4.988.023-9.974.019c-3.611-.004-7.221.015-10.832.036l-3.154-.014c-10.808.104-20.32 2.761-28.398 10.163-9.837 10.359-9.672 21.664-9.608 35.143q-.008 2.862-.02 5.724c-.019 5.159-.012 10.318 0 15.477.01 5.41.001 10.82-.005 16.23q-.01 13.625.022 27.249a7536 7536 0 0 1-.008 31.465q-.026 13.53-.01 27.06c.006 5.381.007 10.762-.006 16.143a2216 2216 0 0 0 .02 15.176 729 729 0 0 1-.006 5.557C17.19 351.06 17.19 351.06 22 363l1.64 2.672c6.076 7.845 12.729 12.246 22.63 13.862 5.759.688 11.546.635 17.337.665q3.159.02 6.318.053c5.981.062 11.963.116 17.944.15 3.673.02 7.346.056 11.018.1q2.094.021 4.188.026c1.946.005 3.89.028 5.836.055l3.352.025c2.737.392 2.737.392 4.555 1.793 2.502 3.385 2.352 6.376 2.387 10.435l.03 2.13q.046 3.49.081 6.98l.063 4.834q.082 6.366.153 12.734.077 6.495.161 12.99.162 12.748.307 25.496 1.68-1.424 3.358-2.853l1.89-1.605c2.178-1.917 4.094-3.981 6.002-6.167l2.297-2.602 1.201-1.364c2.22-2.498 4.488-4.951 6.752-7.409 3.353-3.649 6.69-7.312 10-11a1449 1449 0 0 1 11.414-12.54A1136 1136 0 0 0 171.5 403q5.1-5.678 10.25-11.312l1.357-1.49q1.307-1.428 2.645-2.825c1.453-1.547 1.453-1.547 3.264-4.166 2.637-2.601 5.17-2.608 8.78-2.835l1.736-.111c6.571-.385 13.148-.414 19.728-.419l4.125-.015q4.398-.017 8.796-.026 6.968-.018 13.937-.053c13.2-.062 26.4-.116 39.6-.15a7207 7207 0 0 0 21.936-.087q5.787-.034 11.573-.04 5.44-.002 10.877-.044 1.984-.01 3.969-.005c11.724.025 21.767-1.63 30.927-9.422 7.612-8.177 10.154-16.757 10.14-27.71l.01-2.33q.01-3.859.011-7.719l.015-5.54q.019-7.522.024-15.043l.012-9.405q.02-14.723.027-29.445.007-16.978.05-33.955.034-13.134.034-26.268 0-7.839.025-15.678.023-7.379.01-14.758-.002-2.7.013-5.4c.074-14.19-.826-24.7-10.965-35.436-8.252-7.786-18.675-9.517-29.638-9.378q-2.276.014-4.553.027l-2.52.02c-5.075.034-10.15.03-15.226.036"/><path d="m91.11 250.626 2.823-.012c3.13-.01 6.258.002 9.387.014q3.36-.004 6.721-.011c5.458-.009 10.916-.003 16.374.009 6.355.014 12.71.012 19.065.01q17.007-.003 34.014.028 16.506.029 33.012.02a24711 24711 0 0 1 39.773.01l1.904.001q6.645.005 13.292.002 8.943-.002 17.886.022 3.288.006 6.574.002c2.985-.003 5.97.006 8.955.018l2.645-.011 2.423.018 2.088.002c2.944.38 5.201 1.406 7.18 3.63 1.473 3.086 1.337 6.3.774 9.622-1.87 2.431-3.281 3.64-6 5a52 52 0 0 1-3.793.137l-2.41.015-2.66.002-2.815.013c-3.133.014-6.266.02-9.4.026l-6.715.025q-10.096.034-20.193.052l-5.702.011a32640 32640 0 0 1-43.6.07l-2.06.001c-11.008.013-22.017.046-33.026.088q-16.95.063-33.897.071c-6.346.004-12.691.015-19.037.048q-8.951.045-17.904.025-3.288 0-6.577.025c-2.99.023-5.978.015-8.967-.001l-2.64.042c-4.02-.053-6.64-.172-9.623-3.032-2.092-2.764-2.895-4.172-2.981-7.618.734-2.801 1.54-4.507 3.513-6.625 3.784-2.092 7.34-1.785 11.597-1.75"/><path d="m87.008 301.746 2.4-.018 2.62.011 2.795-.011c3.1-.01 6.199-.007 9.298-.003l6.657-.015q8.109-.017 16.218-.012a9587 9587 0 0 0 18.887-.01q17.87-.014 35.739-.003c10.899.006 21.798-.006 32.697-.025q16.785-.03 33.572-.024c6.283.002 12.565 0 18.848-.014q8.862-.018 17.722.002 3.255.004 6.51-.009c2.958-.01 5.916-.002 8.875.01l2.612-.022c5.882.054 9.276 1.131 13.542 5.397.371 1.77.371 1.77.438 3.812l.12 2.02c-.855 3.32-2.746 5.342-5.558 7.168-3.087.73-6.1.671-9.261.628l-2.836.022c-3.138.017-6.275 0-9.413-.019q-3.373.008-6.746.022c-5.475.018-10.95.01-16.424-.008q-6.675-.02-13.35-.015l-1.919.002q-1.93 0-3.86.003c-11.378.008-22.755-.008-34.133-.038a8261 8261 0 0 0-33.116-.02 12653 12653 0 0 1-39.913-.003l-1.911-.003q-6.666-.007-13.332.005-8.973.01-17.946-.032-3.296-.01-6.592 0c-2.996.009-5.99-.007-8.987-.03l-2.645.026c-3.737-.052-6.573-.097-9.632-2.392C76.41 315.36 76 313.782 76 310c1.955-5.352 1.955-5.352 4.863-7.156 2.228-.88 3.763-1.095 6.145-1.098"/><path d="m85.845 199.606 3.025-.035 3.315.01c1.153-.01 2.306-.018 3.494-.027 3.164-.022 6.327-.025 9.49-.023q3.963-.002 7.925-.017 9.35-.027 18.7-.015c6.427.007 12.854-.016 19.282-.053q8.28-.045 16.56-.038c3.297.002 6.593-.004 9.889-.028a677 677 0 0 1 9.303 0c1.677.005 3.354-.015 5.031-.035 8.22.091 8.22.091 11.317 3.062 2.297 3.265 2.5 4.874 2.254 8.726-.666 2.893-2.06 4.174-4.43 5.867-2.869.956-4.67 1.13-7.648 1.14l-2.893.018-3.17.003-3.34.015q-4.538.019-9.076.024l-5.673.012q-8.88.02-17.76.027-10.242.007-20.483.05-7.922.034-15.845.034-4.729 0-9.457.025c-3.519.02-7.038.015-10.557.008l-3.15.028c-5.486-.031-9.33-.31-13.948-3.384-1.46-2.201-1.832-4.376-2-7 1.43-5.72 3.93-8.369 9.845-8.394"/></svg>