<?xml version="1.0" standalone="no"?>
<!DOCTYPE svg PUBLIC "-//W3C//DTD SVG 20010904//EN"
 "http://www.w3.org/TR/2001/REC-SVG-20010904/DTD/svg10.dtd">
<svg version="1.0" xmlns="http://www.w3.org/2000/svg"
 width="612.000000pt" height="612.000000pt" viewBox="0 0 612.000000 612.000000"
 preserveAspectRatio="xMidYMid meet">

<g transform="translate(0.000000,612.000000) scale(0.100000,-0.100000)"
fill="#000000" stroke="none">
<path d="M2915 5971 c-81 -29 -128 -56 -185 -108 -66 -59 -124 -148 -147 -222
-9 -31 -21 -61 -27 -68 -6 -6 -274 -131 -595 -277 l-585 -265 -26 50 c-55 108
-164 204 -283 248 -260 96 -561 -56 -653 -329 -25 -75 -25 -225 0 -300 51
-154 170 -276 322 -331 91 -34 246 -32 337 4 81 32 115 54 184 120 l51 49 13
-23 c16 -32 193 -354 361 -659 74 -135 140 -255 146 -266 12 -23 20 -17 -357
-257 l-104 -66 -34 57 c-93 155 -249 243 -433 243 -257 1 -464 -180 -502 -438
-34 -231 103 -457 329 -543 36 -14 91 -24 143 -27 149 -9 268 35 377 140 35
33 65 58 67 56 2 -2 21 -35 43 -74 44 -77 427 -737 463 -798 13 -22 19 -42 14
-46 -5 -5 -63 -47 -129 -94 -66 -48 -165 -120 -220 -160 -55 -40 -106 -76
-112 -80 -6 -4 -24 13 -42 42 -65 100 -164 180 -271 217 -83 29 -254 26 -335
-6 -176 -68 -300 -223 -327 -407 -34 -242 116 -481 349 -553 81 -25 216 -27
294 -4 120 35 246 136 303 244 16 30 30 56 31 58 2 2 246 -107 543 -242 297
-135 564 -256 593 -269 53 -24 54 -25 73 -92 61 -217 281 -367 516 -352 211
14 375 142 444 349 l25 72 588 268 c323 147 591 267 594 268 3 0 15 -19 25
-42 48 -107 167 -210 293 -254 94 -34 229 -33 326 1 268 95 407 385 311 649
-125 346 -569 450 -825 193 -28 -28 -52 -49 -55 -46 -2 2 -28 51 -59 109 -52
101 -215 412 -320 610 -27 52 -74 141 -103 196 l-54 102 230 126 c126 69 231
126 234 126 2 0 18 -25 35 -55 64 -113 187 -206 316 -240 252 -65 519 80 605
330 91 264 -60 563 -327 645 -88 27 -218 27 -306 0 -77 -24 -173 -85 -221
-142 l-34 -40 -15 24 c-84 136 -530 911 -533 927 -3 11 63 58 229 163 128 81
240 150 248 152 9 4 24 -12 44 -45 17 -28 58 -78 93 -110 106 -99 200 -135
352 -133 152 2 258 50 364 164 65 70 101 141 121 235 18 87 18 122 1 207 -23
104 -62 174 -141 253 -81 80 -151 119 -257 141 -216 46 -456 -71 -549 -265
-13 -28 -28 -49 -34 -47 -5 2 -73 33 -150 68 -77 36 -341 156 -586 267 l-447
204 -6 37 c-11 71 -75 178 -147 243 -109 101 -202 137 -354 136 -60 0 -107 -6
-140 -18z m279 -265 c186 -109 157 -383 -48 -461 -164 -63 -348 81 -333 262 8
102 69 184 164 219 59 22 162 13 217 -20z m-575 -457 c56 -114 180 -215 309
-250 174 -49 352 -4 484 121 34 33 65 56 69 52 4 -4 100 -169 214 -367 114
-198 212 -365 217 -372 5 -7 7 -16 4 -22 -3 -5 -72 -51 -153 -102 -82 -52
-163 -104 -182 -116 -38 -26 -61 -29 -61 -10 0 33 -122 166 -192 210 -167 105
-406 93 -565 -28 -58 -43 -120 -116 -149 -174 l-15 -31 -52 33 c-29 19 -104
67 -167 107 -63 40 -151 97 -195 125 -44 28 -147 94 -230 146 -318 200 -389
247 -392 256 -2 5 218 110 489 233 271 123 497 227 503 232 21 18 41 5 64 -43z
m1364 -146 c117 -53 264 -120 327 -148 63 -29 148 -67 188 -85 39 -18 72 -36
72 -40 0 -9 -430 -284 -434 -278 -3 3 -75 127 -294 503 -41 72 -77 133 -79
138 -8 14 8 7 220 -90z m-2966 -28 c121 -61 170 -208 111 -337 -41 -89 -124
-141 -228 -141 -192 0 -311 194 -226 367 44 90 120 135 227 136 50 0 77 -6
116 -25z m4318 6 c132 -59 185 -218 118 -350 -93 -183 -359 -180 -449 6 -66
134 -9 288 128 348 47 20 154 18 203 -4z m-3420 -784 c138 -88 312 -198 387
-246 76 -47 138 -89 138 -93 0 -3 -15 -15 -32 -26 -18 -10 -105 -65 -192 -121
-87 -56 -162 -99 -166 -94 -10 11 -410 742 -410 749 0 7 -16 17 275 -169z
m1261 -111 c94 -44 152 -147 141 -251 -23 -221 -291 -311 -439 -147 -71 79
-87 195 -40 289 60 116 215 167 338 109z m955 -133 c40 -71 133 -231 206 -357
74 -126 131 -231 128 -234 -3 -3 -13 2 -22 10 -10 8 -183 119 -385 248 -203
128 -368 235 -368 239 1 9 353 230 361 225 3 -2 39 -61 80 -131z m-1496 -363
c95 -156 276 -250 460 -237 44 3 103 13 130 23 63 21 179 97 207 135 12 16 25
29 29 29 10 0 43 -61 162 -290 53 -102 148 -284 211 -405 64 -120 112 -222
108 -226 -28 -25 -406 -221 -409 -212 -3 7 -21 38 -42 70 -157 243 -480 305
-717 137 -34 -24 -74 -58 -88 -75 -15 -17 -28 -30 -30 -28 -1 2 -24 45 -51 94
-27 50 -57 106 -68 125 -11 19 -74 134 -140 255 -66 121 -123 225 -127 230
-24 34 -90 168 -85 174 11 10 399 259 407 260 4 1 23 -26 43 -59z m1709 -453
c132 -83 239 -156 238 -162 -3 -12 -393 -226 -405 -222 -9 3 -32 44 -144 257
-162 309 -243 467 -243 473 0 6 118 -67 554 -346z m-2232 -157 c218 -399 241
-441 236 -445 -2 -3 -51 21 -109 53 -57 32 -240 132 -406 222 l-302 165 77 49
c249 161 338 215 350 213 8 -1 77 -117 154 -257z m-1130 228 c53 -16 132 -88
152 -139 56 -139 -18 -303 -155 -343 -65 -20 -92 -20 -155 -1 -105 31 -176
128 -176 240 0 71 17 117 63 170 65 73 173 103 271 73z m4353 -12 c94 -43 145
-125 145 -233 0 -113 -66 -203 -174 -239 -181 -60 -367 106 -326 293 36 161
208 248 355 179z m-3529 -659 c93 -52 271 -149 397 -216 125 -68 229 -127 232
-131 3 -5 -39 -41 -92 -79 -54 -39 -142 -103 -196 -142 -54 -39 -100 -69 -101
-67 -8 8 -408 700 -413 713 -3 8 -3 15 0 15 3 0 81 -42 173 -93z m1333 -93
c99 -29 181 -135 181 -235 0 -195 -201 -320 -371 -231 -153 80 -185 276 -66
400 72 75 155 97 256 66z m984 -150 c26 -49 89 -168 139 -264 50 -96 118 -226
151 -288 32 -62 57 -115 55 -118 -4 -3 -297 205 -473 336 -27 20 -108 79 -178
130 -79 57 -125 96 -119 102 18 18 357 198 367 195 5 -2 32 -44 58 -93z
m-1425 -437 c90 -93 179 -140 300 -157 192 -27 407 78 503 245 l26 45 84 -62
c46 -34 108 -79 137 -100 62 -45 101 -73 342 -249 102 -75 256 -187 343 -249
86 -63 157 -117 157 -120 0 -6 -1050 -484 -1054 -479 -1 2 -8 18 -15 36 -17
42 -77 122 -121 160 -98 85 -204 125 -330 125 -143 1 -246 -40 -351 -139 l-66
-63 -108 188 c-60 103 -167 288 -239 411 l-130 224 34 28 c31 26 225 168 343
250 l52 36 23 -41 c13 -22 44 -63 70 -89z m-697 -385 c15 -26 104 -179 198
-341 94 -162 169 -296 168 -297 -4 -5 -827 370 -827 376 0 3 37 32 82 65 45
33 139 101 208 152 69 51 130 92 135 93 6 0 22 -22 36 -48z m-1020 -47 c103
-35 171 -131 172 -240 0 -70 -17 -116 -64 -170 -73 -82 -195 -108 -294 -61
-97 46 -147 125 -147 232 -1 174 169 295 333 239z m4330 0 c103 -35 170 -129
171 -239 0 -72 -17 -118 -63 -171 -70 -80 -194 -107 -289 -64 -114 51 -172
161 -150 281 29 152 184 243 331 193z m-2154 -640 c92 -38 150 -115 160 -209
9 -84 -11 -141 -71 -202 -105 -108 -260 -109 -364 -3 -119 121 -86 321 67 401
62 33 148 38 208 13z"/>
</g>
</svg>
