<?xml version="1.0" standalone="no"?>
<!DOCTYPE svg PUBLIC "-//W3C//DTD SVG 20010904//EN"
 "http://www.w3.org/TR/2001/REC-SVG-20010904/DTD/svg10.dtd">
<svg version="1.0" xmlns="http://www.w3.org/2000/svg"
 width="512.000000pt" height="512.000000pt" viewBox="0 0 512.000000 512.000000"
 preserveAspectRatio="xMidYMid meet">

<g transform="translate(0.000000,512.000000) scale(0.100000,-0.100000)"
fill="#000000" stroke="none">
<path d="M675 4713 c-55 -14 -71 -64 -32 -108 21 -25 25 -26 91 -19 102 10
135 55 81 109 -19 20 -34 25 -72 24 -26 -1 -57 -4 -68 -6z"/>
<path d="M2465 4707 c-168 -43 -286 -168 -317 -336 -15 -77 -2 -164 36 -247
l26 -56 -200 -208 c-110 -114 -207 -213 -215 -220 -11 -9 -67 16 -298 135
l-284 147 10 56 c29 168 -68 359 -221 434 -57 28 -79 34 -155 37 -49 1 -109
-2 -135 -9 -213 -53 -350 -257 -315 -466 24 -140 117 -264 240 -322 52 -24 69
-27 168 -27 146 0 204 22 294 112 l63 63 32 -18 c17 -11 134 -72 260 -137
l228 -117 -312 -313 -312 -312 -57 29 c-161 83 -370 50 -499 -79 -199 -199
-143 -538 110 -662 127 -63 250 -64 366 -6 l67 34 312 -311 312 -312 -267
-136 -267 -136 -37 42 c-85 94 -194 139 -327 132 -71 -3 -99 -10 -154 -35
-330 -155 -328 -599 3 -757 60 -29 73 -31 175 -31 103 0 114 2 177 32 93 44
160 110 204 199 32 63 36 82 38 151 0 43 -2 94 -7 113 l-7 35 285 145 284 145
219 -219 219 -218 -29 -57 c-106 -206 -23 -459 185 -561 174 -85 363 -55 498
79 99 99 146 240 120 363 -7 33 -11 61 -9 62 2 2 161 83 353 181 193 97 416
211 498 253 l147 75 48 -47 c57 -57 145 -102 229 -118 174 -32 372 72 454 237
74 151 34 341 -97 465 -135 128 -341 154 -510 64 l-63 -33 -325 266 c-179 147
-323 270 -320 275 3 4 149 124 325 268 l320 260 58 -35 c80 -50 198 -73 288
-58 206 36 363 216 363 418 0 68 -26 171 -55 220 -55 95 -170 169 -287 185
-139 20 -269 -21 -368 -116 l-45 -44 -505 257 c-278 141 -506 257 -507 258 -1
0 3 29 9 63 33 179 -63 367 -228 444 -54 25 -81 31 -152 34 -50 2 -108 -2
-137 -9z m220 -156 c142 -64 195 -218 124 -359 -55 -111 -154 -170 -269 -159
-185 16 -302 209 -226 372 27 60 100 128 159 149 60 21 163 20 212 -3z m-1748
-266 c94 -47 133 -121 133 -253 0 -80 -3 -92 -29 -133 -53 -83 -125 -128 -219
-136 -146 -13 -274 92 -298 243 -8 51 15 136 50 182 81 110 247 154 363 97z
m2781 -642 l203 -105 -8 -46 c-16 -93 -3 -203 33 -289 3 -6 -145 -135 -331
-288 -303 -250 -338 -276 -353 -263 -9 8 -82 68 -162 133 -80 65 -149 122
-153 126 -5 3 1 25 12 47 12 23 26 72 33 111 22 131 -21 261 -121 362 -166
165 -432 172 -600 14 l-49 -46 -156 81 c-86 45 -156 85 -156 88 0 4 88 95 197
204 l196 196 37 -23 c160 -101 361 -77 508 60 l57 53 305 -155 c168 -86 396
-203 508 -260z m730 21 c172 -85 198 -321 52 -458 -93 -87 -229 -97 -339 -27
-85 55 -121 126 -121 237 0 49 6 73 33 124 53 106 126 149 253 150 56 0 80 -5
122 -26z m-2461 -295 c157 -82 174 -93 168 -113 -3 -11 -9 -58 -12 -103 l-6
-83 -141 -45 c-78 -24 -294 -94 -481 -154 -466 -150 -463 -168 -43 259 177
180 327 328 332 329 5 1 87 -40 183 -90z m686 33 c105 -47 190 -166 190 -267
-1 -104 -87 -220 -184 -249 -67 -20 -141 -20 -209 0 -106 31 -195 158 -193
277 1 63 52 167 99 204 84 64 201 77 297 35z m-463 -487 c31 -50 113 -120 178
-151 47 -23 74 -29 154 -32 107 -5 163 8 256 60 45 25 56 27 70 16 96 -76 302
-250 301 -256 0 -4 -61 -56 -135 -117 -198 -161 -182 -150 -202 -132 -10 9
-44 29 -77 44 -54 25 -70 28 -170 28 -91 0 -120 -4 -168 -23 -74 -30 -149 -90
-190 -152 -17 -27 -36 -50 -42 -50 -5 0 -226 72 -490 160 l-480 159 0 86 0 86
235 75 c129 42 343 111 475 154 132 43 245 78 252 79 6 1 21 -15 33 -34z
m-1293 -104 c101 -39 173 -142 173 -249 0 -97 -75 -203 -178 -250 -128 -58
-295 5 -358 136 -23 47 -29 135 -15 189 40 148 226 234 378 174z m2693 -612
c182 -149 330 -275 330 -281 0 -5 -9 -26 -20 -48 -11 -21 -25 -70 -32 -108 -9
-57 -9 -78 4 -129 l15 -60 -503 -256 c-276 -142 -506 -257 -510 -257 -4 0 -31
23 -61 51 -131 123 -307 149 -472 68 l-63 -31 -202 201 c-192 193 -200 203
-181 217 11 8 82 47 159 85 l138 71 46 -46 c57 -58 114 -92 188 -111 304 -79
588 174 536 477 -7 39 -21 90 -31 113 l-18 42 166 136 c91 75 169 136 174 136
4 1 156 -121 337 -270z m-1932 -18 l473 -156 4 -90 4 -91 -186 -93 -186 -93
-324 324 c-177 177 -323 328 -323 333 0 20 24 35 45 29 11 -4 233 -77 493
-163z m1020 43 c137 -68 190 -240 118 -381 -72 -143 -236 -195 -382 -123 -74
36 -115 82 -138 152 -33 101 -12 205 55 282 64 72 114 94 225 95 56 1 80 -4
122 -25z m1753 -281 c96 -53 145 -152 137 -275 -8 -102 -54 -171 -148 -220
-64 -33 -186 -33 -250 0 -53 28 -110 80 -110 101 0 8 -12 32 -26 53 -17 24
-29 57 -32 87 -6 63 21 146 54 168 13 8 27 26 30 38 5 22 60 59 112 76 15 5
61 7 103 5 63 -2 86 -8 130 -33z m-3536 -616 c95 -48 165 -149 165 -237 0 -86
-18 -129 -80 -192 -86 -86 -191 -110 -304 -68 -108 41 -180 142 -181 255 0
110 77 222 179 259 60 23 159 15 221 -17z m1705 -257 c103 -28 210 -149 218
-246 9 -104 -49 -206 -144 -254 -67 -34 -198 -36 -260 -3 -132 70 -189 222
-130 348 58 126 190 190 316 155z"/>
<path d="M399 4591 c-141 -94 -252 -266 -278 -432 -14 -87 4 -119 66 -119 42
0 57 24 77 118 23 110 66 184 168 284 98 96 108 121 62 157 -35 27 -42 27 -95
-8z"/>
<path d="M4437 2350 c-61 -49 -40 -97 57 -130 169 -56 319 -216 366 -388 8
-33 18 -46 45 -59 31 -15 36 -15 60 1 39 26 41 43 12 127 -74 214 -235 374
-454 450 -31 10 -57 19 -58 19 -1 0 -14 -9 -28 -20z"/>
<path d="M4898 1653 c-9 -10 -26 -53 -38 -95 -21 -72 -22 -79 -7 -102 21 -31
47 -39 81 -26 28 10 34 22 60 111 21 72 20 75 -9 104 -28 29 -66 32 -87 8z"/>
</g>
</svg>
